# xmcd CD database file
#
# Track frame offsets:
#	150
#	32824
#	54137
#	77198
#	97654
#	126420
#	156775
#	178942
#	200371
#	226430
#
# Disc length: 3292 seconds
#
# Revision: 2
# Processed by: cddbd v1.5.2PL0 Copyright (c) Steve Scherf et al.
# Submitted via: CDex 1.70beta2
#
DISCID=7a0cda0a
DTITLE=The Danny Sinoff Quartet - Ellington's Presents...
DYEAR=2007
DGENRE=Jazz
TTITLE0=Do Nothing Till You Hear From Me
TTITLE1=East Of The Sun
TTITLE2=Over The Rainbow
TTITLE3=September In The Rain
TTITLE4=In Your Own Sweet Way
TTITLE5=Cry Me A River
TTITLE6=Just In Time
TTITLE7=I Wish You Love
TTITLE8=Stars Fell On Alabama
TTITLE9=Don't Get Around Much Anymore
EXTD=YEAR: 2007
EXTT0=
EXTT1=
EXTT2=
EXTT3=
EXTT4=
EXTT5=
EXTT6=
EXTT7=
EXTT8=
EXTT9=
PLAYORDER=
